<?xml version="1.0" encoding="UTF-8"?>
<!-- Generator: Adobe Illustrator 12.0.0, SVG Export Plug-In . SVG Version: 6.00 Build 51448)  -->
<svg width="64" height="64" enable-background="new 0 0 354.346 659.055" overflow="visible" version="1.1" viewBox="0 0 64 64" xml:space="preserve" xmlns="http://www.w3.org/2000/svg" xmlns:cc="http://creativecommons.org/ns#" xmlns:dc="http://purl.org/dc/elements/1.1/" xmlns:rdf="http://www.w3.org/1999/02/22-rdf-syntax-ns#" xmlns:xlink="http://www.w3.org/1999/xlink"><metadata><rdf:RDF><cc:Work rdf:about=""><dc:format>image/svg+xml</dc:format><dc:type rdf:resource="http://purl.org/dc/dcmitype/StillImage"/><dc:title/></cc:Work></rdf:RDF></metadata><defs><linearGradient id="linearGradient5442" x1="-750.5" x2="-729.5" y1="319.05" y2="319.05" gradientTransform="matrix(.14304 0 0 .14304 294.62 663.95)" gradientUnits="userSpaceOnUse"><stop stop-color="#808080" offset="0"/><stop stop-color="#808080" stop-opacity="0" offset="1"/></linearGradient><linearGradient id="linearGradient5450" x1="-621.5" x2="-600.5" y1="348.3" y2="348.3" gradientTransform="matrix(.14304 0 0 .14304 290.47 659.76)" gradientUnits="userSpaceOnUse"><stop stop-color="#808080" offset="0"/><stop stop-color="#808080" stop-opacity="0" offset="1"/></linearGradient><linearGradient id="linearGradient5458" x1="-521.5" x2="-500.5" y1="348.3" y2="348.3" gradientTransform="matrix(.14304 0 0 .14304 290.47 659.76)" gradientUnits="userSpaceOnUse"><stop stop-color="#808080" offset="0"/><stop stop-color="#808080" stop-opacity="0" offset="1"/></linearGradient><linearGradient id="linearGradient5496" x1="-560.5" x2="-474.5" y1="114.1" y2="114.1" gradientTransform="matrix(.14304 0 0 .14304 294.62 663.95)" gradientUnits="userSpaceOnUse"><stop stop-color="#808080" offset="0"/><stop stop-color="#808080" stop-opacity="0" offset="1"/></linearGradient><linearGradient id="linearGradient5618" x1="188.68" x2="304.68" y1="603.53" y2="603.53" gradientTransform="matrix(.14304 0 0 .14304 136.68 620.4)" gradientUnits="userSpaceOnUse"><stop stop-color="#0074bd" offset="0"/><stop stop-color="#0074bd" stop-opacity="0" offset="1"/></linearGradient><linearGradient id="linearGradient5626" x1="543.68" x2="594.68" y1="488.42" y2="488.42" gradientTransform="matrix(.14304 0 0 .14304 136.68 620.4)" gradientUnits="userSpaceOnUse"><stop stop-color="#0074bd" offset="0"/><stop stop-color="#0074bd" stop-opacity="0" offset="1"/></linearGradient></defs><g transform="translate(-163.18 -655.62)"><g stroke="#000" stroke-width=".14304px"><path d="m205.22 690.99 16.449 10.013-12.873 7.1519-16.449-10.013z" fill="#16003a"/><path d="m190.92 690.99 16.449 10.013-12.873 7.1519-16.449-10.013z" fill="#ffba39"/><path d="m176.61 690.99 16.449 10.013-12.873 7.1519-16.449-10.013z" fill="#991039"/></g><g><g transform="matrix(.16859 -.08651 .17606 .10752 255.51 582.49)" aria-label="U"><path d="m-848.24 371.35h8.2967v16.043q0 2.3862-0.75258 4.5155-0.73422 2.1109-2.3312 3.7078-1.5786 1.5786-3.3224 2.221-2.4229 0.89942-5.8187 0.89942-1.964 0-4.2952-0.27533-2.3128-0.27534-3.873-1.083-1.5602-0.826-2.8635-2.3312-1.2849-1.5052-1.7621-3.1021-0.77093-2.5698-0.77093-4.5522v-16.043h8.2967v16.428q0 2.2027 1.2115 3.4508 1.2298 1.2298 3.3958 1.2298 2.1476 0 3.3591-1.2115 1.2298-1.2298 1.2298-3.4692z" fill="#fff"/></g><g transform="matrix(.16859 -.08651 .17606 .10752 284.14 582.25)" aria-label="L"><path d="m-865.75 371.35h8.3151v20.283h12.977v6.6264h-21.292z" fill="#fff"/></g><g transform="matrix(.16859 -.08651 .17606 .10752 269.83 582.24)" aria-label="M"><path d="m-865.84 371.35h10.94l4.2218 16.373 4.2034-16.373h10.903v26.909h-6.7916v-20.522l-5.268 20.522h-6.1491l-5.2497-20.522v20.522h-6.8099z" fill="#fff"/></g></g><g><rect x="72.562" y="643.92" width="0" height="0" fill="#00f" stroke-width=".14304"/><g stroke="#000" stroke-width=".14304px"><path d="m221.64 700.97-7.1265-4.2593v-17.165l7.1519 4.2911z" fill="url(#linearGradient5626)"/><path d="m221.67 683.85 5.0064-2.875-7.1519-4.2911-5.0063 2.8608z" fill="url(#linearGradient5496)"/><path d="m163.74 698.14 16.449 10.013v7.1519l-16.449-10.013z" fill="url(#linearGradient5618)"/><path d="m180.19 715.3v-7.1519l12.873-7.1519 1.4304 7.1519 12.873-7.1519 1.4304 7.1519 12.873-7.1519v-17.165l5.0063-2.8608v34.329z" fill="#fff"/></g></g><path d="m222.27 672.68c1.4372 1.6544-0.37685 3.1419-0.37685 3.1419s3.6471-1.8824 1.9725-4.2408c-1.5646-2.1983-2.7641-3.2904 3.7298-7.0564 7e-5 0-10.194 2.5453-5.3255 8.1554z" clip-rule="evenodd" fill="#ea2d2e" fill-rule="evenodd" stroke-width=".14304"/><path d="m223.87 658.44s3.0935 3.0953-2.935 7.8537c-4.8345 3.8185-1.1023 5.9949-2e-3 8.4828-2.8223-2.5461-4.8923-4.7878-3.5038-6.8738 2.039-3.0616 7.6884-4.5465 6.4406-9.4626z" clip-rule="evenodd" fill="#ea2d2e" fill-rule="evenodd" stroke-width=".14304"/><g stroke="#000" stroke-width=".14304"><path d="m188.05 708.15h1.4304c0.39621 0 0.71519 0.31898 0.71519 0.71519v1.4304c0 0.39622-0.31898 0.71519-0.71519 0.71519h-1.4304c-0.39621 0-0.71519-0.31897-0.71519-0.71519v-1.4304c0-0.39621 0.31898-0.71519 0.71519-0.71519z" fill="url(#linearGradient5442)"/><path d="m216.66 708.15h1.4304c0.39621 0 0.71519 0.31898 0.71519 0.71519v1.4304c0 0.39622-0.31898 0.71519-0.71519 0.71519h-1.4304c-0.39622 0-0.71519-0.31897-0.71519-0.71519v-1.4304c0-0.39621 0.31897-0.71519 0.71519-0.71519z" fill="url(#linearGradient5458)"/><path d="m202.36 708.15h1.4304c0.39621 0 0.71519 0.31898 0.71519 0.71519v1.4304c0 0.39622-0.31898 0.71519-0.71519 0.71519h-1.4304c-0.39621 0-0.71519-0.31897-0.71519-0.71519v-1.4304c0-0.39621 0.31898-0.71519 0.71519-0.71519z" fill="url(#linearGradient5450)"/></g></g></svg>
